<?xml version="1.0" encoding="UTF-8"?>
<svg width="96px" height="68px" viewBox="0 0 96 68" version="1.1" xmlns="http://www.w3.org/2000/svg" xmlns:xlink="http://www.w3.org/1999/xlink">
    <!-- Generator: Sketch 57.1 (83088) - https://sketch.com -->
    
    
    <defs>
        <linearGradient x1="50%" y1="0%" x2="50%" y2="100%" id="linearGradient-1">
            <stop stop-color="#A5ADBA" offset="0%"></stop>
            <stop stop-color="#FFFFFF" offset="100%"></stop>
        </linearGradient>
    </defs>
    <g id="Guidelines" stroke="none" stroke-width="1" fill="none" fill-rule="evenodd">
        <g id="01_Guidelines_Tables" transform="translate(-1406.000000, -1887.000000)" fill-rule="nonzero">
            <g id="Group-21" transform="translate(180.000000, 1706.000000)">
                <g id="Group-20" transform="translate(704.000000, 0.000000)">
                    <g id="Group-2" transform="translate(481.000000, 180.000000)">
                        <g id="no-data-found" transform="translate(40.500000, 0.500000)">
                            <ellipse id="Oval" fill="url(#linearGradient-1)" opacity="0.1" cx="49" cy="37.5" rx="47.5" ry="31"></ellipse>
                            <circle id="Oval" fill="#A5ADBA" cx="14" cy="43" r="1.5"></circle>
                            <circle id="Oval-Copy" fill="#A5ADBA" cx="92" cy="30" r="1.5"></circle>
                            <circle id="Oval" fill="#A5ADBA" cx="2" cy="52" r="1.5"></circle>
                            <circle id="Oval" fill="#A5ADBA" cx="10" cy="27" r="1.5"></circle>
                            <circle id="Oval-Copy-2" fill="#A5ADBA" cx="84" cy="54" r="1.5"></circle>
                            <g id="search" transform="translate(18.500000, 0.500000)">
                                <path d="M26.7303371,0 C11.991628,0 0,11.991628 0,26.7303371 C0,41.469876 11.991628,53.4606742 26.7303371,53.4606742 C41.469876,53.4606742 53.4606742,41.469876 53.4606742,26.7303371 C53.4606742,11.991628 41.469876,0 26.7303371,0 Z" id="Path" fill="#A5ADBA"></path>
                                <path d="M26.7303371,48.5259576 C14.7123906,48.5259576 4.93483511,38.7484021 4.93483511,26.7304556 C4.93483511,14.7125092 14.7123906,4.93483511 26.7303371,4.93483511 C38.7482835,4.93483511 48.525839,14.7123906 48.525839,26.7303371 C48.525839,38.7482835 38.7482835,48.5259576 26.7303371,48.5259576 Z" id="Path" fill="#FFFFFF"></path>
                                <path d="M60.2728903,56.7639003 L46.0451117,42.5360996 C45.075632,41.5666185 43.5055782,41.5666185 42.5360985,42.5360996 C41.5666189,43.5047462 41.5666189,45.0764717 42.5360985,46.0451183 L56.7638771,60.2729189 C57.2485573,60.7575999 57.8831128,61 58.5183837,61 C59.1528199,61 59.7880908,60.7575999 60.2728903,60.2729189 C61.2423699,59.3042724 61.2423699,57.7325468 60.2728903,56.7639003 Z" id="Path" fill="#A5ADBA"></path>
                            </g>
                            <path d="M43.7426596,21.22796 L45.5,22.985 L47.2573404,21.22796 C48.2279789,20.2573467 49.8013826,20.2573467 50.7720211,21.22796 C51.7426596,22.1985734 51.7426596,23.7719364 50.7720211,24.7425498 L49.014,26.499 L50.7720211,28.2571395 C51.7426596,29.2277529 51.7426596,30.8011159 50.7720211,31.7717293 C50.2867019,32.257036 49.651002,32.5 49.0146808,32.5 C48.3789809,32.5 47.7426596,32.257036 47.2573404,31.7717293 L45.5,30.014 L43.7426596,31.7717293 C43.2573404,32.257036 42.6210191,32.5 41.9853192,32.5 C41.3496194,32.5 40.7132981,32.257036 40.2279789,31.7717293 C39.2573404,30.8011159 39.2573404,29.2277529 40.2279789,28.2571395 L41.985,26.499 L40.2279789,24.7425498 C39.2573404,23.7719364 39.2573404,22.1985734 40.2279789,21.22796 C41.1986174,20.2573467 42.7720211,20.2573467 43.7426596,21.22796 Z" id="Combined-Shape" fill="#A5ADBA"></path>
                        </g>
                    </g>
                </g>
            </g>
        </g>
    </g>
</svg>